<svg width="95" height="95" viewBox="0 0 95 95" fill="none" xmlns="http://www.w3.org/2000/svg">
<path d="M67.2917 19C66.8544 19 66.5 19.3544 66.5 19.7917V27.7083C66.5 28.1456 66.8544 28.5 67.2917 28.5H75.2083C75.6456 28.5 76 28.1456 76 27.7083V19.7917C76 19.3544 75.6456 19 75.2083 19H67.2917ZM66.5 76V73.625C66.5 72.3133 67.5633 71.25 68.875 71.25C70.1867 71.25 71.25 72.3133 71.25 73.625V76H76V73.625C76 72.3133 77.0633 71.25 78.375 71.25C79.6867 71.25 80.75 72.3133 80.75 73.625V78.375C80.75 79.6867 79.6867 80.75 78.375 80.75H59.375C58.0633 80.75 57 79.6867 57 78.375V73.625C57 72.3133 58.0633 71.25 59.375 71.25C60.6867 71.25 61.75 72.3133 61.75 73.625V76H66.5ZM52.25 42.75H54.625C55.9367 42.75 57 43.8133 57 45.125C57 46.4367 55.9367 47.5 54.625 47.5H45.125C43.8133 47.5 42.75 46.4367 42.75 45.125C42.75 43.8133 43.8133 42.75 45.125 42.75H47.5V38H40.375C39.0633 38 38 36.9367 38 35.625C38 34.3133 39.0633 33.25 40.375 33.25H54.625C55.9367 33.25 57 34.3133 57 35.625C57 36.9367 55.9367 38 54.625 38H52.25V42.75ZM76 47.5H73.625C72.3133 47.5 71.25 46.4367 71.25 45.125C71.25 43.8133 72.3133 42.75 73.625 42.75H76V40.375C76 39.0633 77.0633 38 78.375 38C79.6867 38 80.75 39.0633 80.75 40.375V49.875C80.75 51.1867 79.6867 52.25 78.375 52.25C77.0633 52.25 76 51.1867 76 49.875V47.5ZM52.25 57H49.875C48.5633 57 47.5 55.9367 47.5 54.625C47.5 53.3133 48.5633 52.25 49.875 52.25H54.625C55.9367 52.25 57 53.3133 57 54.625V64.125C57 65.4367 55.9367 66.5 54.625 66.5H40.375C39.0633 66.5 38 65.4367 38 64.125C38 62.8133 39.0633 61.75 40.375 61.75H52.25V57ZM67.2917 14.25H75.2083C78.2689 14.25 80.75 16.7311 80.75 19.7917V27.7083C80.75 30.7689 78.2689 33.25 75.2083 33.25H67.2917C64.2311 33.25 61.75 30.7689 61.75 27.7083V19.7917C61.75 16.7311 64.2311 14.25 67.2917 14.25ZM19.7917 14.25H27.7083C30.7689 14.25 33.25 16.7311 33.25 19.7917V27.7083C33.25 30.7689 30.7689 33.25 27.7083 33.25H19.7917C16.7311 33.25 14.25 30.7689 14.25 27.7083V19.7917C14.25 16.7311 16.7311 14.25 19.7917 14.25ZM19.7917 19C19.3544 19 19 19.3544 19 19.7917V27.7083C19 28.1456 19.3544 28.5 19.7917 28.5H27.7083C28.1456 28.5 28.5 28.1456 28.5 27.7083V19.7917C28.5 19.3544 28.1456 19 27.7083 19H19.7917ZM19.7917 61.75H27.7083C30.7689 61.75 33.25 64.2311 33.25 67.2917V75.2083C33.25 78.2689 30.7689 80.75 27.7083 80.75H19.7917C16.7311 80.75 14.25 78.2689 14.25 75.2083V67.2917C14.25 64.2311 16.7311 61.75 19.7917 61.75ZM19.7917 66.5C19.3544 66.5 19 66.8544 19 67.2917V75.2083C19 75.6456 19.3544 76 19.7917 76H27.7083C28.1456 76 28.5 75.6456 28.5 75.2083V67.2917C28.5 66.8544 28.1456 66.5 27.7083 66.5H19.7917ZM52.25 19H40.375C39.0633 19 38 17.9367 38 16.625C38 15.3133 39.0633 14.25 40.375 14.25H54.625C55.9367 14.25 57 15.3133 57 16.625V26.125C57 27.4367 55.9367 28.5 54.625 28.5C53.3133 28.5 52.25 27.4367 52.25 26.125V19ZM40.375 28.5C39.0633 28.5 38 27.4367 38 26.125C38 24.8133 39.0633 23.75 40.375 23.75H45.125C46.4367 23.75 47.5 24.8133 47.5 26.125C47.5 27.4367 46.4367 28.5 45.125 28.5H40.375ZM16.625 57C15.3133 57 14.25 55.9367 14.25 54.625C14.25 53.3133 15.3133 52.25 16.625 52.25H26.125C27.4367 52.25 28.5 53.3133 28.5 54.625C28.5 55.9367 27.4367 57 26.125 57H16.625ZM35.625 57C34.3133 57 33.25 55.9367 33.25 54.625C33.25 53.3133 34.3133 52.25 35.625 52.25H40.375C41.6867 52.25 42.75 53.3133 42.75 54.625C42.75 55.9367 41.6867 57 40.375 57H35.625ZM42.75 76V78.375C42.75 79.6867 41.6867 80.75 40.375 80.75C39.0633 80.75 38 79.6867 38 78.375V73.625C38 72.3133 39.0633 71.25 40.375 71.25H49.875C51.1867 71.25 52.25 72.3133 52.25 73.625C52.25 74.9367 51.1867 76 49.875 76H42.75ZM33.25 42.75H35.625C36.9367 42.75 38 43.8133 38 45.125C38 46.4367 36.9367 47.5 35.625 47.5H30.875C29.5633 47.5 28.5 46.4367 28.5 45.125V42.75H26.125C24.8133 42.75 23.75 41.6867 23.75 40.375C23.75 39.0633 24.8133 38 26.125 38H30.875C32.1867 38 33.25 39.0633 33.25 40.375V42.75ZM14.25 40.375C14.25 39.0633 15.3133 38 16.625 38C17.9367 38 19 39.0633 19 40.375V45.125C19 46.4367 17.9367 47.5 16.625 47.5C15.3133 47.5 14.25 46.4367 14.25 45.125V40.375ZM61.75 40.375C61.75 39.0633 62.8133 38 64.125 38C65.4367 38 66.5 39.0633 66.5 40.375V49.875C66.5 51.1867 65.4367 52.25 64.125 52.25C62.8133 52.25 61.75 51.1867 61.75 49.875V40.375ZM71.25 61.75V59.375C71.25 58.0633 72.3133 57 73.625 57H78.375C79.6867 57 80.75 58.0633 80.75 59.375C80.75 60.6867 79.6867 61.75 78.375 61.75H76V64.125C76 65.4367 74.9367 66.5 73.625 66.5H64.125C62.8133 66.5 61.75 65.4367 61.75 64.125V59.375C61.75 58.0633 62.8133 57 64.125 57C65.4367 57 66.5 58.0633 66.5 59.375V61.75H71.25ZM4.75 21.375C4.75 22.6867 3.68668 23.75 2.375 23.75C1.06332 23.75 0 22.6867 0 21.375V11.875C0 5.31662 5.31662 0 11.875 0H21.375C22.6867 0 23.75 1.06332 23.75 2.375C23.75 3.68668 22.6867 4.75 21.375 4.75H11.875C7.93997 4.75 4.75 7.93997 4.75 11.875V21.375ZM73.625 4.75C72.3133 4.75 71.25 3.68668 71.25 2.375C71.25 1.06332 72.3133 0 73.625 0H83.125C89.6834 0 95 5.31662 95 11.875V21.375C95 22.6867 93.9367 23.75 92.625 23.75C91.3133 23.75 90.25 22.6867 90.25 21.375V11.875C90.25 7.93997 87.06 4.75 83.125 4.75H73.625ZM21.375 90.25C22.6867 90.25 23.75 91.3133 23.75 92.625C23.75 93.9367 22.6867 95 21.375 95H11.875C5.31662 95 0 89.6834 0 83.125V73.625C0 72.3133 1.06332 71.25 2.375 71.25C3.68668 71.25 4.75 72.3133 4.75 73.625V83.125C4.75 87.06 7.93997 90.25 11.875 90.25H21.375ZM90.25 73.625C90.25 72.3133 91.3133 71.25 92.625 71.25C93.9367 71.25 95 72.3133 95 73.625V83.125C95 89.6834 89.6834 95 83.125 95H73.625C72.3133 95 71.25 93.9367 71.25 92.625C71.25 91.3133 72.3133 90.25 73.625 90.25H83.125C87.06 90.25 90.25 87.06 90.25 83.125V73.625Z" fill="white"/>
</svg>
